<?xml version="1.0" encoding="utf-8"?>
<!-- Generator: Adobe Illustrator 19.2.0, SVG Export Plug-In . SVG Version: 6.00 Build 0)  -->
<svg version="1.1" id="Layer_1" xmlns="http://www.w3.org/2000/svg" xmlns:xlink="http://www.w3.org/1999/xlink" x="0px" y="0px"
	 viewBox="0 0 40 40" style="enable-background:new 0 0 40 40;" xml:space="preserve">
<style type="text/css">
	.st0{fill:none;}
	.st1{fill:#FFFFFF;}
</style>
<title>icon_social_fb</title>
<rect class="st0" width="40" height="40"/>
<g>
	<rect x="4.9" y="14.8" class="st1" width="6.7" height="20"/>
	<path class="st1" d="M8.2,5.1C6.3,5,4.6,6.4,4.5,8.3c-0.2,1.9,1.3,3.6,3.2,3.8l0,0h0.4c1.9,0.1,3.6-1.3,3.7-3.2s-1.3-3.6-3.2-3.7
		C8.6,5.1,8.2,5.1,8.2,5.1z"/>
	<path class="st1" d="M27.9,14.3c-2.5-0.1-4.8,1.2-6,3.3v-2.8h-6.7c0.1,1.9,0,20,0,20h6.7V23.7c0-0.6,0-1.1,0.2-1.6
		c0.5-1.4,1.9-2.4,3.4-2.4c2.4,0,3.4,1.8,3.4,4.5v10.7h6.7V23.3C35.6,17.2,32.3,14.3,27.9,14.3z"/>
</g>
</svg>
