<?xml version="1.0" encoding="utf-8"?>
<!-- Generator: Adobe Illustrator 19.2.0, SVG Export Plug-In . SVG Version: 6.00 Build 0)  -->
<svg version="1.1" id="text" xmlns="http://www.w3.org/2000/svg" xmlns:xlink="http://www.w3.org/1999/xlink" x="0px" y="0px"
	 viewBox="0 0 32.5 32.8" style="enable-background:new 0 0 32.5 32.8;" xml:space="preserve">
<style type="text/css">
	.st0{fill:#A3CE5A;}
</style>
<title>Vector Smart Object</title>
<path class="st0" d="M17.8,9.4c2.6,0.6,4.7,2.8,5.3,5.4c1.2-0.6,2.4-1.3,3.5-1.9c0.3,0.8,0.4,1.6,0.5,2.4l2.5-0.2
	c-0.2-1.8-0.7-3.6-1.6-5.2c-2.4,0.6-4.7-0.9-5.3-3.3c-0.1-0.6-0.2-1.3,0-1.9c-1.6-0.9-3.4-1.4-5.2-1.6l-0.2,2.5
	c0.9,0.1,1.7,0.3,2.6,0.5C19.1,7.2,18.4,8.3,17.8,9.4z"/>
<path class="st0" d="M5.6,10.2c-0.3,0-0.7,0-1-0.1c-0.9,1.6-1.4,3.4-1.6,5.2l2.5,0.2c0.1-0.9,0.3-1.7,0.5-2.6c1.1,0.7,2.2,1.4,3.3,2
	c0.6-2.6,2.8-4.7,5.4-5.3c-0.6-1.2-1.3-2.4-1.9-3.5c0.8-0.3,1.6-0.4,2.4-0.5l-0.2-2.5c-1.8,0.2-3.6,0.7-5.2,1.6
	c0.6,2.4-0.9,4.7-3.3,5.3C6.3,10.2,6,10.2,5.6,10.2z"/>
<path class="st0" d="M14.8,23.1c-2.6-0.6-4.7-2.8-5.3-5.4C8.3,18.3,7.1,19,6,19.6c-0.3-0.8-0.4-1.6-0.5-2.4L3,17.4
	c0.2,1.8,0.7,3.6,1.6,5.2c2.4-0.6,4.7,0.9,5.3,3.3c0.2,0.7,0.2,1.3,0,2c1.6,0.9,3.4,1.4,5.2,1.6l0.2-2.5c-0.9-0.1-1.7-0.3-2.6-0.5
	C13.5,25.3,14.1,24.2,14.8,23.1z"/>
<path class="st0" d="M26.9,22.7c0.3,0,0.7,0,1,0.1c0.9-1.6,1.4-3.4,1.6-5.2L27,17.4c-0.1,0.9-0.2,1.8-0.5,2.6
	c-1.1-0.7-2.2-1.4-3.3-2c-0.6,2.6-2.8,4.7-5.4,5.3c0.6,1.2,1.3,2.4,1.9,3.5c-0.8,0.3-1.6,0.4-2.4,0.5l0.2,2.5
	c1.8-0.2,3.6-0.7,5.2-1.7c-0.6-2.4,0.9-4.7,3.3-5.3C26.3,22.8,26.6,22.7,26.9,22.7z"/>
<path class="st0" d="M26.9,9.7c2.2,0,4-1.8,4-4s-1.8-4-4-4s-4,1.8-4,4S24.7,9.7,26.9,9.7L26.9,9.7z"/>
<path class="st0" d="M5.6,9.9c2.2,0,4-1.8,4-4s-1.8-4-4-4s-4,1.8-4,4C1.6,8.1,3.4,9.9,5.6,9.9C5.6,9.9,5.6,9.9,5.6,9.9z"/>
<path class="st0" d="M5.6,22.9c-2.2,0-4,1.8-4,4s1.8,4,4,4s4-1.8,4-4S7.8,22.9,5.6,22.9L5.6,22.9z"/>
<path class="st0" d="M26.9,23.1c-2.2,0-4,1.8-4,4s1.8,4,4,4s4-1.8,4-4l0,0C31,24.9,29.2,23.1,26.9,23.1z"/>
</svg>
