<svg id="Layer_1" data-name="Layer 1" xmlns="http://www.w3.org/2000/svg" viewBox="0 0 92.46 45.64"><defs><style>.cls-1{fill:#226bb5;}</style></defs><title>Untitled-1</title><path class="cls-1" d="M95.55,58.59l-0.18-9.34L94.51,43.9l-1.74-9.72h0c0-.3,0-0.6,0-0.9l-0.18-5.72h0l-7.19.26-12.48.27-10.59.21-13.49,0-13.6-.09L20.5,27.85l-6.27-.23h0l-10.7-.49L3.43,34c0.4,0,.81,0,1.2,0l11.05,0.44L34.06,35a5.48,5.48,0,0,0,1.05.4,0.4,0.4,0,0,1,.17.07,1.23,1.23,0,0,1,.09.61l-0.22,14-0.29,10.8a2.61,2.61,0,0,1,2.12.74,11.91,11.91,0,0,1,.86,1.12A2.35,2.35,0,0,0,39,63.6c0.34,0.09.65-.33,1-0.26a1.5,1.5,0,0,1,.37.2,1.17,1.17,0,0,0,.77.06,0.79,0.79,0,0,0,.69-0.48,2.64,2.64,0,0,1,0-.33,0.18,0.18,0,0,1,.26-0.11,0.27,0.27,0,0,1,.06.08c0.32,0.59,1.14.79,1.43,1.39s0,1.31.43,1.75a3.12,3.12,0,0,0,1.58.1,2.29,2.29,0,0,1,.46-0.07,1.67,1.67,0,0,1,.63.18l1,0.43a4.84,4.84,0,0,0,.84.3,5.17,5.17,0,0,0,1.95,0,2.69,2.69,0,0,0,1,.83,1.2,1.2,0,0,0,1.24-.16c0.09-.09.17-0.19,0.27-0.27a1.45,1.45,0,0,1,1.07-.1A5.47,5.47,0,0,0,56,67a1.76,1.76,0,0,1-.07.81,0.83,0.83,0,0,0,.14.77c0.37,0.35,1.12,0,1.42.4a1,1,0,0,1,.06.7,2.77,2.77,0,0,0,0,.59,0.31,0.31,0,0,0,0,.15,0.3,0.3,0,0,0,.18.1A1.88,1.88,0,0,0,59.62,70a1.84,1.84,0,0,1,1-.89,0.84,0.84,0,0,1,.43.1,1.4,1.4,0,0,1,.72.83,0.33,0.33,0,0,0,.08.16,0.29,0.29,0,0,0,.18.05l0.63,0L63,70.89a0.45,0.45,0,0,0,.14.19,0.41,0.41,0,0,0,.19.05,2.29,2.29,0,0,0,1-.15c0.28-.11.54-0.28,0.83-0.39a1,1,0,0,1,.88,0,1.36,1.36,0,0,0,0,1.61,0.5,0.5,0,0,0,.54.23,0.7,0.7,0,0,0,.26-0.67,1.54,1.54,0,0,1,.87-1.42,0.51,0.51,0,0,0,.34-0.21,1,1,0,0,0,0-.36,0.48,0.48,0,0,1,.63-0.36,1.77,1.77,0,0,1,.67.5,4.17,4.17,0,0,0,1.11.77,0.64,0.64,0,0,0,.43.08,1.26,1.26,0,0,0,.46-0.41,0.79,0.79,0,0,1,.95-0.09,1.54,1.54,0,0,1,.32.3,3.29,3.29,0,0,0,.71.76c0.38,0.21.79,0.35,1.18,0.54a5.57,5.57,0,0,1,1.2.78A3.81,3.81,0,0,0,76,71.72a1.75,1.75,0,0,0,1.34-.26,3.53,3.53,0,0,1,.6-0.65c0.31-.16.71,0,1-0.18a2.45,2.45,0,0,1,.72-0.51,1.4,1.4,0,0,1,.69.31,1.28,1.28,0,0,0,1.07,0,7.46,7.46,0,0,0,.95-0.58,5.17,5.17,0,0,1,1-.48,0.74,0.74,0,0,1,.29-0.06,0.83,0.83,0,0,1,.46.25,3.3,3.3,0,0,0,1.26.76,1.3,1.3,0,0,0,1.35-.37c0.16-.21.24-0.48,0.41-0.68A0.94,0.94,0,0,1,88.2,69q1.49,1.07,3,2.1a9.06,9.06,0,0,0,4.59,1.68l0.1,0,0-.92V69.31Z" transform="translate(-3.43 -27.13)"/></svg>