<svg id="Layer_1" data-name="Layer 1" xmlns="http://www.w3.org/2000/svg" viewBox="0 0 97.68 92.85"><defs><style>.cls-1{fill:#226bb5;}</style></defs><title>Untitled-1</title><path class="cls-1" d="M98.3,48.78a0.46,0.46,0,0,1,0-.2,0.88,0.88,0,0,0,.07-0.23,0.21,0.21,0,0,0-.1-0.21c-0.07,0-.16,0-0.23,0A0.34,0.34,0,0,1,98,48l-0.78-.93a1.5,1.5,0,0,0-.11-0.8,0.61,0.61,0,0,0-.28-0.33l-0.13-.05a0.57,0.57,0,0,1-.19-0.31A1.4,1.4,0,0,0,96.09,45a0.51,0.51,0,0,1-.22-0.29,0.61,0.61,0,0,1,0-.22,1.48,1.48,0,0,0,0-.49,2.76,2.76,0,0,0-.12-0.74,2.15,2.15,0,0,0-.32-0.56,4.86,4.86,0,0,0-1.12-1.08,0.76,0.76,0,0,1-.31-0.32L93.74,37,93.42,32.5h0l-0.24-2.88L93,27.82l-1.41-.24a0.86,0.86,0,0,0-.54,0,0.79,0.79,0,0,1-.41.21,0.4,0.4,0,0,1-.14-0.05,0.84,0.84,0,0,1-.35-0.28c0-.05-0.05-0.11-0.08-0.17a0.42,0.42,0,0,0-.33-0.2,5.92,5.92,0,0,1-3-1q-1-.65-2-1.32A0.61,0.61,0,0,0,84,25c-0.11.13-.15,0.31-0.25,0.45a0.85,0.85,0,0,1-.88.27A2.16,2.16,0,0,1,82,25.24a0.54,0.54,0,0,0-.31-0.16,0.49,0.49,0,0,0-.19,0,3.38,3.38,0,0,0-.63.33,4.88,4.88,0,0,1-.61.4,0.84,0.84,0,0,1-.7,0,0.91,0.91,0,0,0-.46-0.19,1.6,1.6,0,0,0-.46.35c-0.2.11-.46,0-0.66,0.14a2.31,2.31,0,0,0-.38.43,1.15,1.15,0,0,1-.87.19,2.49,2.49,0,0,1-.14.62,3.64,3.64,0,0,0-.8-0.48c-0.26-.11-0.53-0.2-0.78-0.33a2.15,2.15,0,0,1-.48-0.48A1,1,0,0,0,74.36,26a0.52,0.52,0,0,0-.62.08,0.82,0.82,0,0,1-.29.28,0.42,0.42,0,0,1-.28,0,2.72,2.72,0,0,1-.74-0.48A1.16,1.16,0,0,0,72,25.47a0.31,0.31,0,0,0-.41.24,0.66,0.66,0,0,1,0,.24,0.33,0.33,0,0,1-.22.14,1,1,0,0,0-.54.95,0.46,0.46,0,0,1-.16.44,0.33,0.33,0,0,1-.36-0.14,0.89,0.89,0,0,1,0-1.05,0.67,0.67,0,0,0-.58,0c-0.19.07-.35,0.19-0.53,0.27a1.49,1.49,0,0,1-.68.12,0.27,0.27,0,0,1-.13,0,0.29,0.29,0,0,1-.09-0.12L68,26.13H67.64a0.19,0.19,0,0,1-.12,0,0.21,0.21,0,0,1-.06-0.1A0.92,0.92,0,0,0,67,25.46a0.55,0.55,0,0,0-.29-0.06,1.2,1.2,0,0,0-.64.6,1.23,1.23,0,0,1-1.22.4,0.2,0.2,0,0,1-.12-0.06,0.2,0.2,0,0,1,0-.1,1.81,1.81,0,0,1,0-.38,0.65,0.65,0,0,0,0-.46c-0.2-.27-0.69,0-0.93-0.24a0.54,0.54,0,0,1-.11-0.5,1.15,1.15,0,0,0,0-.53,3.58,3.58,0,0,1-1.24.1,1,1,0,0,0-.69.09c-0.07.05-.11,0.12-0.17,0.18a0.78,0.78,0,0,1-.81.12A1.76,1.76,0,0,1,60,24.11a3.38,3.38,0,0,1-1.27.06A3.16,3.16,0,0,1,58.2,24l-0.66-.26a1.1,1.1,0,0,0-.42-0.1,1.5,1.5,0,0,0-.3.05,2,2,0,0,1-1,0,4.07,4.07,0,0,1-.31-1.14c-0.2-.39-0.74-0.5-1-0.88l0-.05a0.12,0.12,0,0,0-.17.08,1.72,1.72,0,0,0,0,.21,0.51,0.51,0,0,1-.44.33,0.77,0.77,0,0,1-.5,0A1,1,0,0,0,53.1,22c-0.22,0-.42.24-0.64,0.19a1.53,1.53,0,0,1-.77-0.52A7.79,7.79,0,0,0,51.11,21a1.71,1.71,0,0,0-1.4-.44V13.47L49.57,4.3A0.8,0.8,0,0,0,49.5,3.9a0.26,0.26,0,0,0-.11,0,3.58,3.58,0,0,1-.7-0.24h-12l-7.23-.08a6,6,0,0,0-1.1,0L28.17,12.9,27.94,23.21l-0.36,10.4-0.16,8,0,0.85a0.43,0.43,0,0,1-.17.33l-0.36.42-10.91-.33L4,42.33l-2.85-.2c-0.1,0-.15.05-0.25,0.05H0.87a0.14,0.14,0,0,0,0,.11,1.67,1.67,0,0,0,.3,1c0.19,0.3.43,0.57,0.62,0.88l0,0.07L2,44.32a2.24,2.24,0,0,1,1.11.78C3.52,45.68,3.53,46.48,4,47a2.71,2.71,0,0,0,1,.67,3.9,3.9,0,0,1,.72.38,3.1,3.1,0,0,1,.5.5c0.42,0.5.82,1,1.28,1.49,0.28,0.28.58,0.52,0.85,0.81s0.7,1,1.09,1.41a2.3,2.3,0,0,0,1.5.88l0.63,0.56a2.47,2.47,0,0,0,.75.53,0.59,0.59,0,0,1,.38.25,1.75,1.75,0,0,0,.07.38A0.49,0.49,0,0,0,13,55a1.08,1.08,0,0,1,.49.69c0.08,0.28.09,0.57,0.14,0.86a0.72,0.72,0,0,0,.11.31,2.1,2.1,0,0,0,.22.21,2,2,0,0,1,.34.64c0.11,0.25.28,0.47,0.41,0.71a1.19,1.19,0,0,1,.16.79c0,0.13-.08.25-0.11,0.37a1.54,1.54,0,0,0,0,.36q0,0.41,0,.82a5.79,5.79,0,0,0,.91,1.78,11,11,0,0,0,.54,1.15,1.71,1.71,0,0,0,1,.8,2.75,2.75,0,0,1,.56.15,1.17,1.17,0,0,1,.31.26,6.29,6.29,0,0,0,1.6,1.54,16.84,16.84,0,0,0,1.85.54,0.65,0.65,0,0,1,.2.41,1.22,1.22,0,0,0,.83.43,2.53,2.53,0,0,1,1,.58c0.18,0.17.33,0.36,0.52,0.51a1,1,0,0,0,.66.26,0.31,0.31,0,0,1,.22,0,0.49,0.49,0,0,1,.08.12,0.52,0.52,0,0,0,.43.16l0.71,0a0.44,0.44,0,0,0,.35-0.09,1.73,1.73,0,0,0,.14-0.38,1.89,1.89,0,0,1,.48-0.34c0.18-.16.19-0.44,0.36-0.62s0.47-.22.62-0.42a5.08,5.08,0,0,0,.2-0.9,1.84,1.84,0,0,1,.23-0.3,2.36,2.36,0,0,0,.34-0.71l0.58-1.67a1.56,1.56,0,0,1,1-1.05A2,2,0,0,0,30.9,63c0.14-.07.25-0.19,0.39-0.24a2.52,2.52,0,0,0,1-.17,2,2,0,0,0,.17-0.28,0.89,0.89,0,0,1,1.1-.16,3.83,3.83,0,0,0,1.11.46,2.67,2.67,0,0,0,.43,0,8.86,8.86,0,0,1,1.09,0,3,3,0,0,1,.92.15,1.17,1.17,0,0,0,1,.18,2.71,2.71,0,0,0,.23-0.19,0.81,0.81,0,0,1,.89,0,2.39,2.39,0,0,1,.64.7,5.48,5.48,0,0,1,.65,1.11l0.51-.1a1.3,1.3,0,0,0,.55.78,3.86,3.86,0,0,0,.88.43c0.05,0.13,0,.28,0,0.41a0.6,0.6,0,0,0,.3.27,7.38,7.38,0,0,1,1.38,1,2.3,2.3,0,0,1,.31.32,4,4,0,0,1,.24.39,8.49,8.49,0,0,0,.52.75,1.92,1.92,0,0,0,.17.21c0.24,1.67,1.34,2.95,2.27,4.35a1.12,1.12,0,0,1,.2.43,1.92,1.92,0,0,1,0,.5,3,3,0,0,0,.89,2,1.18,1.18,0,0,0,1.13.62,3.16,3.16,0,0,0,.64,1.28c0.16,0.17.37,0.3,0.53,0.47,0.71,0.72.76,2,1.67,2.47,0.29,0.13.62,0.15,0.9,0.29a2.36,2.36,0,0,1,1,2,0.73,0.73,0,0,1,0,.39,2.54,2.54,0,0,0-.35.48c-0.07.37,0.53,0.48,0.69,0.82a1.25,1.25,0,0,1,0,.68,3,3,0,0,0,1,2,7.52,7.52,0,0,1,1.41,2.76,0.39,0.39,0,0,0,0,.54c0.1,0.2.27,0.36,0.36,0.57a1.27,1.27,0,0,0,.17.41,0.7,0.7,0,0,0,.49.16l1.25,0.09a1.09,1.09,0,0,1,.57.15,2.9,2.9,0,0,1,.45.64c0.64,0.8,2.14.07,2.86,0.8,0.16,0.16.25,0.38,0.41,0.54a1.75,1.75,0,0,0,1,.42,10.9,10.9,0,0,0,2.92,0,2.43,2.43,0,0,1,1,0,2.29,2.29,0,0,1,.79.52,2.92,2.92,0,0,0,2.26,1,0.81,0.81,0,0,1,0-.45,7.51,7.51,0,0,1,.84-0.34c0.24-.08.46-0.14,0.67-0.19a0.49,0.49,0,0,0-.07-0.51,0.57,0.57,0,0,0-.59.39,0.48,0.48,0,0,1-.07-0.31,0.69,0.69,0,0,1-.26.34,0.93,0.93,0,0,1-.49-0.58,0.23,0.23,0,0,0,.31-0.15,0.66,0.66,0,0,0,0-.38,7.29,7.29,0,0,0-.52-1.55c-0.21-.41-0.51-0.79-0.69-1.21a8.46,8.46,0,0,1-.41-1.83,4.36,4.36,0,0,0-.82-1.64,0.59,0.59,0,0,1,0-.43,0.94,0.94,0,0,0,.51.23,1.83,1.83,0,0,0-.4-0.59,0.55,0.55,0,0,1-.09-0.66,0.37,0.37,0,0,0,.5-0.22,2.16,2.16,0,0,0,0-.37,4.08,4.08,0,0,1,.25-0.63c0.1-.34-0.07-0.72,0-1.05a2,2,0,0,1-1.88.09,0.41,0.41,0,0,1-.22-0.21,3.28,3.28,0,0,1,0-.44,0.52,0.52,0,0,0-.15-0.24L68,83c-0.08-.09-0.14-0.27,0-0.3a0.17,0.17,0,0,1,.14,0,2.68,2.68,0,0,1,.44.56,0.81,0.81,0,0,0,.57.38,3.15,3.15,0,0,1,1-.21,0.15,0.15,0,0,1,.1.13,0.18,0.18,0,0,1,0,.08L70,83.9a0.72,0.72,0,0,0,.76-0.45A4.67,4.67,0,0,0,71,82.53c0.12-.49.39-0.93,0.55-1.41a0.73,0.73,0,0,0,.05-0.34,1,1,0,0,0-.34-0.48,1.36,1.36,0,0,1-.4-0.67,0.64,0.64,0,0,0-.11-0.35c-0.22-.22-0.67.1-0.87-0.14q0.67-.16,1.35-0.28a0.84,0.84,0,0,1,.37,0c0.23,0.06.37,0.3,0.6,0.37a3.59,3.59,0,0,1,.57-1,4.47,4.47,0,0,0,.78-1.09,0.2,0.2,0,1,0-.33-0.24,1.08,1.08,0,0,0-.44.55,0.21,0.21,0,0,1-.07.12,0.2,0.2,0,0,1-.22-0.06,0.51,0.51,0,0,1-.25-0.5,1.78,1.78,0,0,1,.14-0.22,0.35,0.35,0,0,0-.06-0.4A1.15,1.15,0,0,0,73.45,76a1.5,1.5,0,0,1,.28.42,1,1,0,0,0,.5-1.08,1.13,1.13,0,0,1,0,1,5.28,5.28,0,0,0,.63-0.54,1.44,1.44,0,0,0,.37-0.53,0.85,0.85,0,0,0-.31-0.94l0.27-.7a2.63,2.63,0,0,0,1.21.88,1.26,1.26,0,0,0,.67-0.26l0.84-.54a0.31,0.31,0,0,0,.17-0.21,0.26,0.26,0,0,0-.13-0.2,0.77,0.77,0,0,0-.87,0A0.42,0.42,0,0,0,77.3,73a0.44,0.44,0,0,0-.19-0.24,3,3,0,0,1-.94-1.35,0.67,0.67,0,0,1,.46-0.21,1.86,1.86,0,0,0,1,1,0.64,0.64,0,0,0,.35.07A0.28,0.28,0,0,0,78.19,72a0.43,0.43,0,0,0-.06-0.21l-0.32-.65a0.17,0.17,0,0,1,0-.09,0.12,0.12,0,0,1,.2,0,0.54,0.54,0,0,1,.11.22,0.68,0.68,0,0,0,1.16.16,0.72,0.72,0,0,0,.23.42,0.28,0.28,0,0,0,.42-0.08l0,0.26,0.89-.34a0.42,0.42,0,0,1,0,.59,1.69,1.69,0,0,1-.55.34,0.78,0.78,0,0,0-.45.45,5,5,0,0,1,1.33-.79,4.48,4.48,0,0,0,1.86-.94,0.45,0.45,0,0,0-.51.12,0.53,0.53,0,0,1-.51.17,0.35,0.35,0,0,1,0-.54,1.11,1.11,0,0,1,.58-0.23A11,11,0,0,0,86.33,69a2,2,0,0,0,1.08-1.49,0.92,0.92,0,0,1,.06-0.61c0.27-.34.63-0.53,0.89-0.88a1.86,1.86,0,0,1,.34-0.4c0.12-.09.28-0.14,0.39-0.25a1.09,1.09,0,0,0,.27-0.61,0.17,0.17,0,0,0,0-.11,0.16,0.16,0,0,0-.09-0.06,0.8,0.8,0,0,1-.38-0.21c-0.16-.22,0-0.57-0.18-0.78a1.64,1.64,0,0,1-.45-0.4,2.48,2.48,0,0,0,0-.5,0.71,0.71,0,0,0-.15-0.16,0.44,0.44,0,0,1,0-.63l0.75,0.39a0.18,0.18,0,0,0,.1,0,0.17,0.17,0,0,0,.1-0.07,4.51,4.51,0,0,1,.55-0.67,0.64,0.64,0,0,1,.8-0.07,0.75,0.75,0,0,1,.17.65,2.54,2.54,0,0,1-.45,1.2,5.61,5.61,0,0,1,1.9-.29,0.46,0.46,0,0,1-.3.39l-0.91.53a1,1,0,0,0-.65.8,30.51,30.51,0,0,1,3.9-2.36,4.65,4.65,0,0,1,2.62-.68c0,0.05.14-.05,0.14-0.12a0.25,0.25,0,0,0-.1-0.16,3.27,3.27,0,0,1-.48-0.61,0.52,0.52,0,0,1-.09-0.24,0.56,0.56,0,0,1,.12-0.31l0.73-1.15a0.19,0.19,0,0,1,.12-0.1h0a2.28,2.28,0,0,1,.2-0.41,3.08,3.08,0,0,0,.43-0.71,1.53,1.53,0,0,0,0-.8,7,7,0,0,0-.41-1.2,1,1,0,0,1-.12-0.44A0.85,0.85,0,0,1,97.49,55a0.59,0.59,0,0,0,.14-0.23,0.51,0.51,0,0,0,0-.2,2.6,2.6,0,0,0-.22-0.76,3.89,3.89,0,0,1,.5-1,1.17,1.17,0,0,0,.19-0.33c0-.16,0-0.33.07-0.49a3.09,3.09,0,0,0,.26-0.49c0-.23-0.17-0.47-0.11-0.7a1.83,1.83,0,0,0,.17-0.41c0-.21-0.27-0.35-0.27-0.56s0.27-.33.28-0.54A3.87,3.87,0,0,0,98.3,48.78Z" transform="translate(-0.82 -3.53)"/></svg>