<svg id="Layer_1" data-name="Layer 1" xmlns="http://www.w3.org/2000/svg" viewBox="0 0 97.18 55.47"><defs><style>.cls-1{fill:#226bb5;}</style></defs><title>Untitled-1</title><path class="cls-1" d="M34,76.08a2.34,2.34,0,0,1,1.77.2,1.87,1.87,0,0,1,.42-1.43,2.16,2.16,0,0,1,.49-0.6,0.73,0.73,0,0,1,.73-0.13,1.27,1.27,0,0,1,.52.77,3.91,3.91,0,0,0,.28.57,3.86,3.86,0,0,0,.33.47l0,0a3.89,3.89,0,0,0,.95.81h0l0.15-4a1.3,1.3,0,0,1,0-1.08A1.63,1.63,0,0,1,40.44,71l18.71,0.26,17.55-.14,18.25-.55,2.86-.07V70.38a2.94,2.94,0,0,0,.45-0.91l-0.33-6L97.1,47.18,96.4,33.33,95.9,23.8l-7.51.32-13.91.43-19.65,0-22.17-.52L6.41,22.6,2,22.22,1.7,26,1.07,33.8a3.09,3.09,0,0,0,.64,1.13c0.28,0.34.57,0.65,0.84,1a7.53,7.53,0,0,0,.93,2.2,1,1,0,0,1,.12.65,1.22,1.22,0,0,0-.13.57,0.85,0.85,0,0,0,.29.34,0.33,0.33,0,0,1,.11.4,4.39,4.39,0,0,0-.59.25A5.18,5.18,0,0,1,4.81,42a1.25,1.25,0,0,0,.19.28,7,7,0,0,1,1.13.61L6.7,43.73c0.39,0.56.77,1.11,1.19,1.64s0.74,0.86,1.1,1.3a0.77,0.77,0,0,1,.14.23,2.13,2.13,0,0,1,0,.61,1.3,1.3,0,0,0,.69.9,1.28,1.28,0,0,1,.68.9,0.15,0.15,0,0,0,0,.12,0.13,0.13,0,0,0,.1,0l0.65-.06c0,0.23,0,.44,0,0.68a3.75,3.75,0,0,0,1.4.25,2.93,2.93,0,0,1,.88,0,0.19,0.19,0,0,1,.1.05,0.21,0.21,0,0,1,0,.17l-0.11.8a4.55,4.55,0,0,1-.11.59A5.54,5.54,0,0,1,13,53a4.58,4.58,0,0,0-.5,1.44c0,0.19,0,.37-0.07.56A3.11,3.11,0,0,1,12,56a0.9,0.9,0,0,1,.23.77,1.4,1.4,0,0,0-.1.67,1,1,0,0,0,.15.24,2,2,0,0,1,.2,1.88,0.52,0.52,0,0,1-.13.19,1,1,0,0,1-.29.13,0.84,0.84,0,0,0-.36,1.2,0.35,0.35,0,0,1,.11.27,0.3,0.3,0,0,1-.08.12,1.91,1.91,0,0,0-.59,1.43,0.24,0.24,0,0,0,0,.13,0.26,0.26,0,0,0,.14.07c0.25,0.06.5,0.08,0.75,0.16a1,1,0,0,1,.61.43,0.65,0.65,0,0,0,.34.43A0.42,0.42,0,0,0,13.25,64a9.37,9.37,0,0,0,2.54-1.87A0.48,0.48,0,0,1,16.32,62a0.51,0.51,0,0,1,.17.26,1.83,1.83,0,0,0,1.06,1.07,13.25,13.25,0,0,0,.2,2.6,4.44,4.44,0,0,0,1.17,2.29,6,6,0,0,1,.49.47,3.15,3.15,0,0,1,.42.77,1.6,1.6,0,0,1,.19,1,1.75,1.75,0,0,0-.26.9,0.8,0.8,0,0,0,.13.23q0.29,0.39.6,0.76a0.46,0.46,0,0,0,.43.23,0.76,0.76,0,0,0,.21-0.14,0.5,0.5,0,0,1,.44,0,2.06,2.06,0,0,1,1.25,1.81A1.93,1.93,0,0,0,23,75.36c0.06,0.08.14,0.14,0.19,0.23a1.8,1.8,0,0,1,.13.73,2.23,2.23,0,0,0,1.25,1.37,0.48,0.48,0,0,0,.29-0.43A1.2,1.2,0,0,1,25,76.73a0.67,0.67,0,0,1,.32-0.22,3.42,3.42,0,0,1,1.86.07,2.11,2.11,0,0,0,1.8-.25A2.72,2.72,0,0,1,29.38,76c0.46-.26,1,0.13,1.53.2s1.29-.32,1.91-0.13a1.93,1.93,0,0,0,.77.23A1.74,1.74,0,0,0,34,76.08Z" transform="translate(-1.07 -22.22)"/></svg>