<svg id="text" xmlns="http://www.w3.org/2000/svg" viewBox="0 0 29.27 39.14"><defs><style>.cls-1{fill:#21c5ce;}</style></defs><title>Vector Smart Object</title><path class="cls-1" d="M10.12,14.46a9.24,9.24,0,1,1,17.25,4.6l3.8,2.9a14,14,0,1,0-12.6,6.47V23.66A9.25,9.25,0,0,1,10.12,14.46Z" transform="translate(-5.36 -0.47)"/><path class="cls-1" d="M25,14.46A5.63,5.63,0,1,0,18.56,20v-7.7l5.89,4.5A5.6,5.6,0,0,0,25,14.46Z" transform="translate(-5.36 -0.47)"/><polygon class="cls-1" points="29.27 26.14 14.78 15.06 14.78 33.36 19.13 28.25 24.47 39.14 27.89 37.45 22.85 26.55 29.27 26.14"/></svg>