<svg id="Layer_12" data-name="Layer 12" xmlns="http://www.w3.org/2000/svg" viewBox="0 0 40 40"><defs><style>.cls-1{fill:#fff;}.cls-2{fill:none;}</style></defs><title>railicon_careerareas</title><path class="cls-1" d="M22.06,24.29v1.78a0.52,0.52,0,0,1-.52.52H18.46a0.52,0.52,0,0,1-.52-0.52V24.29L6.76,20V31A2.05,2.05,0,0,0,8.81,33H31.19A2.05,2.05,0,0,0,33.24,31V20Z"/><path class="cls-1" d="M32,12.41H8a2.05,2.05,0,0,0-2.05,2.05v3.37a1.2,1.2,0,0,0,.72,1L17.94,23.2V22.32a0.52,0.52,0,0,1,.52-0.52h3.08a0.52,0.52,0,0,1,.52.52V23.2l11.28-4.33a1.2,1.2,0,0,0,.72-1V14.46A2.05,2.05,0,0,0,32,12.41Z"/><path class="cls-1" d="M25.26,11.39H23.71c0-1.85-1.32-2.88-3.71-2.88s-3.71,1-3.71,2.88H14.74C14.74,9.25,16.12,7,20,7S25.26,9.25,25.26,11.39Z"/><rect class="cls-2" width="40" height="40"/></svg>