<svg id="text" xmlns="http://www.w3.org/2000/svg" viewBox="0 0 25.25 36.64"><defs><style>.cls-1{fill:#e9a93b;}</style></defs><title>Vector Smart Object</title><path class="cls-1" d="M20,1.68A12.62,12.62,0,1,0,32.62,14.3,12.62,12.62,0,0,0,20,1.68ZM20,25.3a11,11,0,1,1,11-11A11,11,0,0,1,20,25.3Z" transform="translate(-7.38 -1.68)"/><path class="cls-1" d="M20,4.91a9.39,9.39,0,1,0,9.39,9.39A9.4,9.4,0,0,0,20,4.91Zm0,16.4a7,7,0,1,1,7-7A7,7,0,0,1,20,21.31Z" transform="translate(-7.38 -1.68)"/><path class="cls-1" d="M20,28.47a13.59,13.59,0,0,1-6.51-1.65v11.5L20,34l6.51,4.29V26.82A13.59,13.59,0,0,1,20,28.47Z" transform="translate(-7.38 -1.68)"/></svg>