<svg id="Layer_1" data-name="Layer 1" xmlns="http://www.w3.org/2000/svg" viewBox="0 0 33.21 25.44"><defs><style>.cls-1{fill:#00558a;}</style></defs><title>icon_social_tw</title><path class="cls-1" d="M33.18,3a14.26,14.26,0,0,1-3.91,1,6.54,6.54,0,0,0,3-3.56A14.17,14.17,0,0,1,28,2a7,7,0,0,0-5-2,6.63,6.63,0,0,0-6.81,6.43,6.11,6.11,0,0,0,.18,1.47,19.74,19.74,0,0,1-14-6.72A6.13,6.13,0,0,0,1.4,4.43a6.34,6.34,0,0,0,3,5.36A7.08,7.08,0,0,1,1.32,9V9.06a6.54,6.54,0,0,0,5.46,6.31A7.18,7.18,0,0,1,5,15.59a7.08,7.08,0,0,1-1.28-.11,6.77,6.77,0,0,0,6.36,4.47,14.17,14.17,0,0,1-8.48,2.71A14.15,14.15,0,0,1,0,22.57a20.09,20.09,0,0,0,10.44,2.89c12.52,0,19.37-9.8,19.37-18.3V6.33A13.45,13.45,0,0,0,33.18,3Z" transform="translate(0.03 -0.02)"/></svg>