<svg id="Layer_1" data-name="Layer 1" xmlns="http://www.w3.org/2000/svg" viewBox="0 0 33.19 25.48"><defs><style>.cls-1{fill:#fff;}</style></defs><title>Untitled-1</title><path class="cls-1" d="M36.59,10.36a14.26,14.26,0,0,1-3.91,1,6.54,6.54,0,0,0,3-3.56,14.17,14.17,0,0,1-4.32,1.56,7,7,0,0,0-5-2,6.63,6.63,0,0,0-6.81,6.43,6.11,6.11,0,0,0,.18,1.47,19.74,19.74,0,0,1-14-6.72,6.13,6.13,0,0,0-.92,3.23,6.34,6.34,0,0,0,3,5.36,7.08,7.08,0,0,1-3.08-.81s0,0.05,0,.08a6.54,6.54,0,0,0,5.46,6.31,7.18,7.18,0,0,1-1.79.22,7.08,7.08,0,0,1-1.28-.11,6.77,6.77,0,0,0,6.36,4.47A14.17,14.17,0,0,1,5,30a14.15,14.15,0,0,1-1.62-.09,20.09,20.09,0,0,0,10.44,2.89c12.52,0,19.37-9.8,19.37-18.3,0-.28,0-0.56,0-0.83A13.45,13.45,0,0,0,36.59,10.36Z" transform="translate(-3.41 -7.34)"/></svg>