<svg id="Layer_1" data-name="Layer 1" xmlns="http://www.w3.org/2000/svg" viewBox="0 0 55.09 62.04"><defs><style>.cls-1{fill:#226bb5;}</style></defs><title>Untitled-1</title><path class="cls-1" d="M76.31,19.17h0l-2,.09-5.5,0-9.77.16-17.24-.08-8.43-.21-1.37,0-3-.09-1.58,0-0.8,0-2.13-.06L23.63,43.76,22.84,64.34l-0.44,12-0.29,4.4,5.75,0.2L29.35,81,30,80.7,30.06,77l0.32-.9,8.42,0.17,5.4,0.13a7.39,7.39,0,0,1,1.42.16s0-.06,0-0.09c-0.25-.37-0.56-0.69-0.81-1.05a2.07,2.07,0,0,1-.43-1.23,0.17,0.17,0,0,1,.05-0.14,0.18,0.18,0,0,1,.09,0c0.12,0,.18-0.07.3-0.08L48.32,74l14.75,0,13.51-.19L77,73.36a0.54,0.54,0,0,0,.19-0.42v-1L77,62,76.83,49.09,76.55,36.33l-0.3-11.53,0.39-.05Z" transform="translate(-22.12 -18.93)"/></svg>