<svg id="Layer_1" data-name="Layer 1" xmlns="http://www.w3.org/2000/svg" viewBox="0 0 41.21 74.74"><defs><style>.cls-1{fill:#226bb5;}</style></defs><title>Untitled-1</title><path class="cls-1" d="M29.84,41.54h0s0,0.09,0,.13a6.25,6.25,0,0,1-.37.91c-0.89,2.11-.1,4.5.68,6.65a8.83,8.83,0,0,0,.56,1.3,4.86,4.86,0,0,0,.89,1.13,14,14,0,0,1,1.25,1.16c0.35,0.43.58,0.95,0.94,1.37,0.72,0.85,1.89,1.22,2.58,2.09,1,1.21.7,2.94,1.14,4.41,0.17,0.57.72,1.21,1.25,0.93a5.54,5.54,0,0,1,.83-0.75,0.91,0.91,0,0,1,.45,0,9.84,9.84,0,0,1,2.58,1,1,1,0,0,1,.63.77,2.72,2.72,0,0,1-.62,1.07,6.93,6.93,0,0,0-.11,1.63,2.51,2.51,0,0,1-.23.59l-1.19,2.4a2.49,2.49,0,0,0-.35,2,9.14,9.14,0,0,0,3.79,3.89,1,1,0,0,1,.34.29,1.55,1.55,0,0,0,.38.81,0.89,0.89,0,0,0,.57-0.11,1.36,1.36,0,0,1,1.39.66,8.39,8.39,0,0,0,.94,1.35,3.41,3.41,0,0,1,1.2,1.12,3.55,3.55,0,0,1,.07.89A4.61,4.61,0,0,0,50,80.93a1.94,1.94,0,0,1,.19,1.68,2.64,2.64,0,0,0-.55,1,1.21,1.21,0,0,0,.2.57l1.28,2.26a0.93,0.93,0,0,0,.75.61,2.32,2.32,0,0,0,.44-0.15,1.5,1.5,0,0,1,1.21.39A1.21,1.21,0,0,1,53.38,86a3.16,3.16,0,0,1,.91-1.08,2.76,2.76,0,0,1,.79-0.52c1-.37,2,0.32,2.87.81a8.91,8.91,0,0,0,1.56.68,1.33,1.33,0,0,0,1.36-.11,1.31,1.31,0,0,0-.17-1.6,2.08,2.08,0,0,1-.6-1.58,1.82,1.82,0,0,1,1.64-1,1.55,1.55,0,0,1,.94-0.49,7,7,0,0,0,1-.14,1,1,0,0,0,.76-0.67c0.17-.64-0.57-1.22-0.54-1.88s1-1.14,1.07-1.87a1.33,1.33,0,0,0-.28-0.93A0.63,0.63,0,0,1,64.54,75a0.88,0.88,0,0,1,.2-0.21A1.14,1.14,0,0,0,65,74a6.68,6.68,0,0,1,0-.86,0.33,0.33,0,0,1,.29-0.33l0.31-1.77a1.35,1.35,0,0,1,.26-1.14,28.53,28.53,0,0,0,2.17-2.31,5.5,5.5,0,0,0,.61-1.21c0.08-.24.14-0.48,0.24-0.71,0.36-.81,1.25-1.36,1.35-2.24A3.66,3.66,0,0,0,70,62.08a1.51,1.51,0,0,1,.11-1.33L69.49,60a4.89,4.89,0,0,1-.67-1.07,1.65,1.65,0,0,1,0-1.24c0.09-.21.24-0.4,0.34-0.61a0.73,0.73,0,0,0,0-.67A1.62,1.62,0,0,1,69,56.1a0.56,0.56,0,0,1,.31-0.56,0.84,0.84,0,0,0,.44-0.5L69.44,40.25,69.18,26.57l-0.1-2.24,0.06-1c-0.07-.08-0.14-0.14-0.2-0.23a5.8,5.8,0,0,1-1-2.62,4.37,4.37,0,0,0-.66-2.24c-0.22-.26-0.5-0.45-0.72-0.71a3,3,0,0,1-.52-2.15,13.74,13.74,0,0,0,.15-2.26c0-.1,0-0.19,0-0.29l-1.28,0-12.38.19-14.39-.25q-0.09-.49,0,0l0,0a0.38,0.38,0,0,0,0,.23c0.08,0.66,1.49,1.53,2.06,2a0.6,0.6,0,0,1,.19.22,0.87,0.87,0,0,1,.06.36,2.82,2.82,0,0,0,.09.57,0.51,0.51,0,0,0,.08.19,0.57,0.57,0,0,0,.16.12A5.68,5.68,0,0,1,42.45,18a6.24,6.24,0,0,1,.72,1.43l-0.43,2a1.68,1.68,0,0,1-.17.53,2,2,0,0,1-.39.41,3.8,3.8,0,0,0-1,1.34,3.13,3.13,0,0,0-.2,1.51,3.32,3.32,0,0,1-1.16.74,7.42,7.42,0,0,0-1.79.65,5.55,5.55,0,0,1-.54.4,1.9,1.9,0,0,1-.73.18,14.79,14.79,0,0,0-2.4.24,0.66,0.66,0,0,0-.33.16,0.69,0.69,0,0,0-.13.25,9.07,9.07,0,0,0-.51,2.27q0.66,0.72,1.25,1.51a1.31,1.31,0,0,1,.21.35,1.33,1.33,0,0,1,0,.46q0,0.45,0,.91a1.27,1.27,0,0,1-.17.68,1.48,1.48,0,0,1-.3.28,2.42,2.42,0,0,0-.89.93,4.39,4.39,0,0,0-.22,1,3,3,0,0,1-.19,1,1.45,1.45,0,0,1-.95.71c-0.23.06-.47,0.08-0.7,0.15a3.25,3.25,0,0,0-1.14.75,0.43,0.43,0,0,0-.18.28,0.34,0.34,0,0,0,0,.15,3.84,3.84,0,0,1,.43.73,0.94,0.94,0,0,1,0,.34A1.16,1.16,0,0,1,29.84,41.54Z" transform="translate(-29.06 -12.58)"/></svg>