<svg id="Layer_10" data-name="Layer 10" xmlns="http://www.w3.org/2000/svg" viewBox="0 0 40 40"><defs><style>.cls-1{fill:#fff;}.cls-2{fill:none;}</style></defs><title>railicon_lightbulb</title><path class="cls-1" d="M20,10.3a8.3,8.3,0,0,0-5.85,14.2c2.1,2.08,2.15,2.81,2.3,3.89h7.1c0.15-1.08.2-1.81,2.3-3.89A8.3,8.3,0,0,0,20,10.3Zm0,2.84a5.47,5.47,0,0,0-5.46,5.46,0.67,0.67,0,1,1-1.33,0,6.81,6.81,0,0,1,6.8-6.8A0.67,0.67,0,0,1,20,13.14Z"/><path class="cls-1" d="M16.45,29.42V31.7a3.55,3.55,0,0,0,7.1,0V29.42h-7.1Z"/><rect class="cls-1" x="27.01" y="9.24" width="3.27" height="1.44" transform="translate(1.34 23.17) rotate(-45)"/><rect class="cls-1" x="30.59" y="17.89" width="3.27" height="1.44"/><rect class="cls-1" x="27.92" y="25.62" width="1.44" height="3.27" transform="translate(-10.88 28.23) rotate(-45)"/><rect class="cls-1" x="9.72" y="26.53" width="3.27" height="1.44" transform="translate(-15.94 16.01) rotate(-45)"/><rect class="cls-1" x="6.14" y="17.89" width="3.27" height="1.44"/><rect class="cls-1" x="10.64" y="8.33" width="1.44" height="3.27" transform="translate(-3.72 10.95) rotate(-45)"/><rect class="cls-1" x="19.28" y="4.75" width="1.44" height="3.27"/><rect class="cls-2" width="40" height="40"/></svg>