<?xml version="1.0" encoding="utf-8"?>
<!-- Generator: Adobe Illustrator 19.2.0, SVG Export Plug-In . SVG Version: 6.00 Build 0)  -->
<svg version="1.1" id="Layer_9" xmlns="http://www.w3.org/2000/svg" xmlns:xlink="http://www.w3.org/1999/xlink" x="0px" y="0px"
	 viewBox="0 0 40 40" style="enable-background:new 0 0 40 40;" xml:space="preserve">
<style type="text/css">
	.st0{fill:#FFFFFF;}
	.st1{fill:none;}
</style>
<title>railicon_hired</title>
<path class="st0" d="M33.4,20.7L28,11.3c-2.7-0.3-5.3-0.3-8,0.2c-2.6-0.5-5.3-0.5-8-0.2l-5.4,9.5c0.7,0.8,1.4,1.6,2.2,2.4l-0.3,0.3
	c-0.5,0.6-0.3,1.5,0.3,1.9c0.5,0.4,1.3,0.4,1.7-0.1l0.6-0.7c0.5-0.6,0.5-1.4-0.1-1.9c-0.5-0.4-1.2-0.5-1.7-0.1
	c-0.8-0.7-1.4-1.4-1.8-1.9l4.9-8.5c1.9-0.2,3.7-0.2,5.6,0c-0.2,0.1-0.4,0.2-0.7,0.3c-2.4,1.3-3.3,5.1-2.8,6c0.9,1.5,3.1,0.4,4.5-2.3
	c0.7-0.1,1.4-0.3,2-0.6l9.3,8.2c0.6,0.5,0.6,1.4,0.1,2c-0.5,0.6-1.4,0.6-2,0.1l0,0l-6.4-5.7l-0.6,0.7l6.2,5.4
	c0.4,0.6,0.3,1.4-0.3,1.8c-0.4,0.3-1,0.3-1.4,0.1l-6.2-5.4l-0.6,0.7l5.4,4.7c0.5,0.5,0.6,1.2,0.1,1.8c-0.5,0.5-1.2,0.6-1.8,0.1
	l-5.3-4.7l-0.6,0.7l4.2,3.7c0.4,0.5,0.3,1.3-0.2,1.7c-0.4,0.3-0.9,0.3-1.4,0.1l0,0c0.5-0.6,0.4-1.4-0.1-1.9
	c-0.6-0.5-1.4-0.4-1.9,0.1l-0.6,0.7c-0.5,0.6-0.4,1.4,0.1,1.9c0.6,0.5,1.4,0.4,1.9-0.1c0.8,0.8,2.1,0.7,2.9-0.2
	c0.3-0.3,0.5-0.7,0.5-1.1c1,0.7,2.3,0.5,3-0.5c0.2-0.3,0.4-0.7,0.4-1.1c1.1,0.5,2.4,0.1,2.9-1c0.2-0.4,0.3-0.8,0.2-1.3
	c1.2,0.2,2.4-0.6,2.6-1.8c0.1-0.8-0.1-1.5-0.7-2.1C32,22.5,32.7,21.6,33.4,20.7z"/>
<path class="st0" d="M14.1,27L13,28.2c-0.5,0.6-1.5,0.7-2.1,0.1c-0.6-0.5-0.7-1.5-0.1-2.1l0,0l1.1-1.2c0.5-0.6,1.5-0.7,2.1-0.1
	S14.6,26.4,14.1,27z"/>
<path class="st0" d="M17,29.4l-1.1,1.2c-0.5,0.6-1.4,0.7-2,0.3c-0.6-0.5-0.7-1.4-0.3-2c0,0,0.1-0.1,0.1-0.1l1.1-1.2
	c0.5-0.6,1.4-0.7,2-0.3s0.7,1.4,0.3,2C17.1,29.3,17,29.3,17,29.4z"/>
<rect x="-0.4" y="11.9" transform="matrix(0.5 -0.866 0.866 0.5 -9.2195 12.6289)" class="st0" width="13.5" height="4.7"/>
<rect x="31.3" y="7.6" transform="matrix(0.866 -0.5 0.5 0.866 -2.636 18.7578)" class="st0" width="4.7" height="13.5"/>
<rect class="st1" width="40" height="40"/>
</svg>
